<?xml version="1.0" encoding="UTF-8"?>
<svg xmlns="http://www.w3.org/2000/svg" xmlns:svg="http://www.w3.org/2000/svg" version="1.1" viewBox="0 0 500.3 500.3">
  <!-- Generator: Adobe Illustrator 28.6.0, SVG Export Plug-In . SVG Version: 1.2.0 Build 709)  -->
  <g>
    <g id="_图层_1" data-name="图层_1">
      <g id="svg1890">
        <g>
          <path d="M451,355c-3.3-34.3-38.8-78.7-52.5-82.2,1.8-34.8-12.4-61-26-86.3l-2.5-4.8c2.8-3.8,4.8-8.6,6.1-13.6,7.8,3.3,15.4,5,23,5s17.7-2.5,26.5-7.3c0,0,.5-.3.5-.5,11.6-9.6,15.1-21.9,17.1-31.5v-.5c1.3-21.9-10.3-34-21.7-45.6-2.3-2.3-4.5-4.5-6.6-7.1v-5.8c6.6-3,8.8-9.8,8.6-15.9-.3-5-2.3-9.1-5.5-11.3,6.3-4.5,11.9-8.6,12.9-17.1,0-.3,0-.8-.3-1s-.5-.5-1-.5c-21.9,1.3-39.8-3.5-54.2-7.3-9.8-2.5-18.4-4.8-26-4.8-40.9-1.8-75.4,13.4-102.9,44.9-31,44.1-66.8,59.3-101.4,74.1-15.1,6.3-29.3,12.6-42.9,20.7-19.4,11.6-28.2,28-38.3,46.7-2,3.5-4,7.3-6.1,11.1-18.2,45.1-7.6,70.9,11.9,117.8l1.3,3.3c3.5,10.8,1.8,20.9-1.5,40.9-.5,3.5-1.3,7.3-1.8,11.3,0,5.5-4.3,14.1-8.8,24-2.5,5.3-5.3,11.3-8.1,17.7-2.8,7.6-2.8,14.9,0,21.4,7.8,17.1,33.8,26.7,50.9,33h11.1c3.5,0,11.1-4.5,13.6-10.3,1.8-3.8,1-7.6-2-10.8l-15.4-13.6c-5-4.5-7.6-9.3-6.8-12.6.3-1.5,1.5-2.5,3.3-3,18.2-3.8,35.6-7.8,51.4-15.6,5.3-2.8,10.6-7.1,15.6-11.1,2-1.8,4.3-3.3,6.3-5h11.6c3.5,2.8,7.3,6.3,11.1,9.8,10.1,9.3,20.4,18.9,29,19.4h45.6c3.8.8,7.1-2.5,8.3-8.1,1.3-5,.5-11.3-4-13.1l-18.2-5.8-1.3-15.9c6.1-3.5,5-16.1,3-33-1.3-11.1-3.8-20.2-8.1-27.7,17.1-5,33-9.6,38.6-.3,14.6,34.3,12.1,49.7,8.8,69.1v1.5c-.3,0-11.6,19.7-11.6,19.7-2.8,3.5-3.8,8.1-3,11.9.8,4,3.3,7.8,7.8,10.6,11.9,5.8,19.7,2.8,28-.5,1.3-.5,2.5-1,3.8-1.5,11.9-4,20.4-16.4,22.7-26.5,4-25.2,6.8-46.9,3.3-74.1,10.8-2.3,29,6.1,41.9,15.9,7.3,5.8,12.1,11.3,12.1,14.4-2.5,33.5-.8,53.5,5.8,60.3,1.8,2,3.8,3,6.3,3,6.3,0,10.3-6.1,14.9-12.9,1.3-2,2.8-4,4.3-6.3,3-4.3,10.1-16.1,11.6-31.5v-.8c.8-8.8.8-10.3-.8-25.2l.5,1.3ZM216.2,318.4h0c-.3,0-.5,0-.8-.3,0,0-.5-.5-.5-.8l-.5-18.9c0-.5.3-1,1-1.3,22.7-6.3,52.7-15.9,66.6-26.7.5-.5,1.3-.3,1.5,0,3,2.8,6.3,6.1,9.3,9.3,5.5,5.8,11.3,11.9,15.9,14.6.5,0,.8.8.5,1.3,0,.5-.3.8-.8,1-26,12.6-59.8,20.4-92.3,21.7h0ZM336.5,414.3l-.5,1.8c-4,9.3-9.1,14.9-18.2,18.7-2.3.8-5.3,1.3-8.1,1.3s-5-.5-6.8-1.5c-1.3-.8-2-2-2.3-3.3-.8-4.8.3-7.8,2.5-12.6,6.8-9.8,11.1-16.1,20.2-24.7,1.8-1.5,4-2.3,6.3-2,3.3.5,6.3,2.5,8.1,5.5,2.3,6.3.8,11.1-1,16.6l-.3.3ZM338.8,93.5c-1,2.5-3,4.3-5.8,4.5h-1.3c-4.3,0-9.3-3-13.4-8.1-7.1-11.3-8.3-19.2-6.1-32.5h0c1.8-7.8,6.8-9.3,9.6-9.3,6.8-.3,15.1,6.3,17.7,14.1,2.3,7.6,2,22.4-.8,31.3h0ZM362.8,87.2c1.3-11.3,17.9-31,24.7-34.6,9.3-5.3,18.2-5.3,22.4-.5,0,0,.5.3.8.5.5,0,.8.3,1.3.5,2.5.3,4,3.5,4,6.6s-1,7.8-5.5,9.1c-1.5.5-2.8,1.8-2.8,3.5v9.8c-.5,1,0,2,.5,2.5,2.5,3,5.3,5.8,7.8,8.6,10.6,10.8,20.7,21.2,19.7,39.6-2.5,12.4-6.8,20.4-14.1,26.7-14.1,7.6-28,8.1-43.4,1.5-.3,0-.8,0-1-.3.3-4.5,0-9.1-1.5-12.9-10.3-23.5-14.9-49.4-13.1-60.5l.3-.3ZM430.6,412c-3,8.3-11.9,9.8-13.9-1.5-.8-8.6,0-14.9,1.3-23.5,1.3-9.3,14.1-8.6,14.9,2.8.5,8.8,0,16.4-2.3,22.2Z"/>
          <path d="M387,96.5c4.5,0,8.1-3.5,8.1-8.1s-3.5-8.1-8.1-8.1-8.1,3.5-8.1,8.1,3.5,8.1,8.1,8.1Z"/>
        </g>
      </g>
    </g>
  </g>
</svg>